<svg xmlns="http://www.w3.org/2000/svg" width="15" height="12" viewBox="0 0 15 12">
  <path id="eye-slash-regular" d="M14.849,11.038.834.082A.375.375,0,0,0,.307.14L.073.433A.375.375,0,0,0,.131.96L14.146,11.917a.375.375,0,0,0,.527-.058l.234-.293a.375.375,0,0,0-.058-.528Zm-7.9-7.606L10.105,5.9a2.613,2.613,0,0,0-3.159-2.47ZM8.034,8.567,4.875,6.1A2.618,2.618,0,0,0,7.49,8.624,2.648,2.648,0,0,0,8.034,8.567ZM7.49,2.624A6.376,6.376,0,0,1,13.066,6,6.692,6.692,0,0,1,12.035,7.41l.885.691a7.821,7.821,0,0,0,1.24-1.76.758.758,0,0,0,0-.684A7.52,7.52,0,0,0,7.49,1.5a7.235,7.235,0,0,0-2.452.441l1.088.851A6.152,6.152,0,0,1,7.49,2.624Zm0,6.75A6.376,6.376,0,0,1,1.914,6,6.691,6.691,0,0,1,2.946,4.589L2.062,3.9a7.819,7.819,0,0,0-1.24,1.76.758.758,0,0,0,0,.684A7.517,7.517,0,0,0,7.49,10.5a7.264,7.264,0,0,0,2.452-.441l-1.088-.85A6.164,6.164,0,0,1,7.49,9.374Z" transform="translate(0.01 0.001)" fill="#f5f5f5"/>
</svg>
