<svg xmlns="http://www.w3.org/2000/svg" width="15.056" height="12.019" viewBox="0 0 15.056 12.019">
  <g id="Icon_feather-eye" data-name="Icon feather-eye" transform="translate(-0.236 -3.994)">
    <path id="Caminho_7" data-name="Caminho 7" d="M1.5,10.016S3.8,6,7.823,6s6.323,4.016,6.323,4.016-2.3,4.016-6.323,4.016S1.5,10.016,1.5,10.016Z" transform="translate(-0.075 -0.025)" fill="none" stroke="#f5f5f5" stroke-linecap="round" stroke-linejoin="round" stroke-width="1"/>
    <path id="Caminho_8" data-name="Caminho 8" d="M17.825,15.651A2.163,2.163,0,1,1,15.663,13.5,2.157,2.157,0,0,1,17.825,15.651Z" transform="translate(-7.93 -5.67)" fill="none" stroke="#f5f5f5" stroke-linecap="round" stroke-linejoin="round" stroke-width="1"/>
    <path id="Caminho_9" data-name="Caminho 9" d="M13.987,15.508a4.345,4.345,0,0,1-.244,2.008,4.345,4.345,0,0,1-.244-2.008,4.345,4.345,0,0,1,.244-2.008A4.345,4.345,0,0,1,13.987,15.508Z" transform="translate(0.804 -2.003)" fill="none" stroke="rgba(140,128,201,0)" stroke-linecap="round" stroke-linejoin="round" stroke-width="1"/>
    <path id="Caminho_10" data-name="Caminho 10" d="M13.556,16.009c0,1.386-.013,2.509-.028,2.509S13.5,17.4,13.5,16.009s.013-2.509.028-2.509S13.556,14.623,13.556,16.009Z" transform="translate(-12.764 -9.006)" fill="none" stroke="rgba(140,128,201,0)" stroke-linecap="round" stroke-linejoin="round" stroke-width="1"/>
  </g>
</svg>
