<svg xmlns="http://www.w3.org/2000/svg" width="11.619" height="13.279" viewBox="0 0 11.619 13.279">
  <path id="calendar-alt-regular" d="M3.838,7.469H2.8a.312.312,0,0,1-.311-.311V6.121A.312.312,0,0,1,2.8,5.81H3.838a.312.312,0,0,1,.311.311V7.158A.312.312,0,0,1,3.838,7.469Zm2.8-.311V6.121a.312.312,0,0,0-.311-.311H5.291a.312.312,0,0,0-.311.311V7.158a.312.312,0,0,0,.311.311H6.328A.312.312,0,0,0,6.639,7.158Zm2.49,0V6.121a.312.312,0,0,0-.311-.311H7.781a.312.312,0,0,0-.311.311V7.158a.312.312,0,0,0,.311.311H8.818A.312.312,0,0,0,9.129,7.158Zm-2.49,2.49V8.611A.312.312,0,0,0,6.328,8.3H5.291a.312.312,0,0,0-.311.311V9.648a.312.312,0,0,0,.311.311H6.328A.312.312,0,0,0,6.639,9.648Zm-2.49,0V8.611A.312.312,0,0,0,3.838,8.3H2.8a.312.312,0,0,0-.311.311V9.648a.312.312,0,0,0,.311.311H3.838A.312.312,0,0,0,4.15,9.648Zm4.98,0V8.611A.312.312,0,0,0,8.818,8.3H7.781a.312.312,0,0,0-.311.311V9.648a.312.312,0,0,0,.311.311H8.818A.312.312,0,0,0,9.129,9.648ZM11.619,2.9v9.129a1.245,1.245,0,0,1-1.245,1.245H1.245A1.245,1.245,0,0,1,0,12.034V2.9A1.245,1.245,0,0,1,1.245,1.66H2.49V.311A.312.312,0,0,1,2.8,0H3.838A.312.312,0,0,1,4.15.311V1.66h3.32V.311A.312.312,0,0,1,7.781,0H8.818a.312.312,0,0,1,.311.311V1.66h1.245A1.245,1.245,0,0,1,11.619,2.9Zm-1.245,8.974V4.15H1.245v7.729a.156.156,0,0,0,.156.156h8.818A.156.156,0,0,0,10.374,11.878Z" fill="#222121"/>
</svg>
