<svg xmlns="http://www.w3.org/2000/svg" width="11.782" height="11.782" viewBox="0 0 11.782 11.782">
  <path id="download-solid" d="M4.97,0H6.811a.551.551,0,0,1,.552.552V4.418H9.382a.459.459,0,0,1,.324.785l-3.5,3.5a.446.446,0,0,1-.628,0l-3.5-3.5A.459.459,0,0,1,2.4,4.418h2.02V.552A.551.551,0,0,1,4.97,0Zm6.811,8.652V11.23a.551.551,0,0,1-.552.552H.552A.551.551,0,0,1,0,11.23V8.652A.551.551,0,0,1,.552,8.1H3.928L5.056,9.228a1.179,1.179,0,0,0,1.671,0L7.854,8.1H11.23A.551.551,0,0,1,11.782,8.652ZM8.928,10.677a.46.46,0,1,0-.46.46A.462.462,0,0,0,8.928,10.677Zm1.473,0a.46.46,0,1,0-.46.46A.462.462,0,0,0,10.4,10.677Z" fill="#222121"/>
</svg>
