<svg xmlns="http://www.w3.org/2000/svg" width="76.889" height="102.538" viewBox="0 0 76.889 102.538">
  <path id="file-pdf-regular" d="M74.065,19.523l-16.8-16.8A9.611,9.611,0,0,0,50.478-.1H9.611A9.644,9.644,0,0,0,0,9.531v83.3a9.614,9.614,0,0,0,9.611,9.611H67.278a9.614,9.614,0,0,0,9.611-9.611V26.33a9.658,9.658,0,0,0-2.823-6.808ZM66.5,25.55H51.259V10.312ZM9.611,92.827V9.531H41.648V30.355a4.794,4.794,0,0,0,4.806,4.806H67.278V92.827Zm50.1-28.773c-2.443-2.4-9.411-1.742-12.895-1.3a17.364,17.364,0,0,1-7.368-9.271c.781-3.224,2.022-8.129,1.081-11.213-.841-5.246-7.569-4.725-8.53-1.181-.881,3.224-.08,7.709,1.4,13.435a160.784,160.784,0,0,1-7.088,14.9c-4,2.062-9.411,5.246-10.212,9.251-.661,3.164,5.206,11.053,15.238-6.247,4.485-1.482,9.371-3.3,13.7-4.025,3.784,2.042,8.209,3.4,11.173,3.4C61.311,71.8,61.811,66.156,59.709,64.054ZM20.043,79.632c1.021-2.743,4.906-5.907,6.087-7.008C22.326,78.691,20.043,79.772,20.043,79.632ZM36.382,41.468c1.482,0,1.342,6.427.36,8.169C35.861,46.854,35.881,41.468,36.382,41.468ZM31.5,68.819a78.593,78.593,0,0,0,4.946-10.953,22.062,22.062,0,0,0,6.027,7.108C38.3,65.836,34.68,67.6,31.5,68.819Zm26.35-1s-1,1.2-7.469-1.562C57.406,65.736,58.568,67.338,57.847,67.818Z" transform="translate(0 0.1)"/>
</svg>
