<svg xmlns="http://www.w3.org/2000/svg" width="11.784" height="11.782" viewBox="0 0 11.784 11.782">
  <path id="upload-solid" d="M6.812,8.911H4.971a.551.551,0,0,1-.552-.552V4.492H2.4a.459.459,0,0,1-.325-.785L5.577.2A.446.446,0,0,1,6.2.2l3.5,3.5a.459.459,0,0,1-.325.785H7.365V8.359A.551.551,0,0,1,6.812,8.911Zm4.971-.184V11.3a.551.551,0,0,1-.552.552H.552A.551.551,0,0,1,0,11.3V8.727a.551.551,0,0,1,.552-.552h3.13v.184A1.29,1.29,0,0,0,4.971,9.647H6.812A1.29,1.29,0,0,0,8.1,8.359V8.175h3.13A.551.551,0,0,1,11.784,8.727ZM8.93,10.752a.46.46,0,1,0-.46.46A.462.462,0,0,0,8.93,10.752Zm1.473,0a.46.46,0,1,0-.46.46A.462.462,0,0,0,10.4,10.752Z" transform="translate(0 -0.075)" fill="#222121"/>
</svg>
