<svg xmlns="http://www.w3.org/2000/svg" width="17.673" height="11.782" viewBox="0 0 17.673 11.782">
  <path id="eye-regular" d="M8.837,66.455a3.4,3.4,0,0,0-.959.153,1.7,1.7,0,0,1,.222.828,1.718,1.718,0,0,1-1.718,1.718,1.7,1.7,0,0,1-.828-.222,3.427,3.427,0,1,0,3.283-2.478Zm8.73,2.988A9.841,9.841,0,0,0,8.837,64a9.842,9.842,0,0,0-8.73,5.443.993.993,0,0,0,0,.9,9.841,9.841,0,0,0,8.73,5.443,9.842,9.842,0,0,0,8.73-5.443.993.993,0,0,0,0-.9Zm-8.73,4.866a8.346,8.346,0,0,1-7.3-4.418,8.346,8.346,0,0,1,7.3-4.418,8.346,8.346,0,0,1,7.3,4.418A8.346,8.346,0,0,1,8.837,74.309Z" transform="translate(-0.001 -64)" fill="#222121"/>
</svg>
