<svg xmlns="http://www.w3.org/2000/svg" width="11.839" height="11.839" viewBox="0 0 11.839 11.839">
  <path id="times-solid" d="M8.163,85.919l3.366-3.366a1.058,1.058,0,0,0,0-1.5l-.748-.748a1.058,1.058,0,0,0-1.5,0L5.919,83.675,2.554,80.31a1.058,1.058,0,0,0-1.5,0l-.748.748a1.058,1.058,0,0,0,0,1.5l3.366,3.366L.31,89.285a1.058,1.058,0,0,0,0,1.5l.748.748a1.058,1.058,0,0,0,1.5,0l3.366-3.366,3.366,3.366a1.058,1.058,0,0,0,1.5,0l.748-.748a1.058,1.058,0,0,0,0-1.5Z" transform="translate(0 -80)" fill="red"/>
</svg>
