<svg xmlns="http://www.w3.org/2000/svg" width="100.756" height="108.957" viewBox="0 0 100.756 108.957">
  <path id="Icon_simple-electron" data-name="Icon simple-electron" d="M9.219,52.97C4.5,44.734,3.536,37.026,6.894,31.215c4.5-7.79,15.781-10.511,30.051-7.913a1.465,1.465,0,1,1-.523,2.88c-13.2-2.4-23.257.023-26.993,6.5C6.676,37.444,7.5,44.1,11.758,51.519a1.465,1.465,0,1,1-2.539,1.456ZM77.111,25.354c8.35.109,14.361,2.712,17.069,7.4,3.731,6.457.819,16.359-7.818,26.561a1.465,1.465,0,1,0,2.23,1.893c9.347-11.039,12.609-22.142,8.122-29.919-3.3-5.72-10.284-8.737-19.562-8.86a1.465,1.465,0,1,0-.036,2.926ZM68.675,94.7a1.465,1.465,0,0,0-2.011.5c-4.25,7.067-9.465,10.916-14.834,10.916-7.472,0-14.6-7.494-19.112-20.1A1.465,1.465,0,1,0,29.96,87c4.883,13.642,12.878,22.042,21.86,22.042,6.553,0,12.618-4.468,17.351-12.332a1.465,1.465,0,0,0-.5-2.011Zm33.473-11.8a7.008,7.008,0,0,1-11.085,5.688c-11.171,6.575-32.517,3.231-52.6-8.373A91.574,91.574,0,0,1,16.641,62.986a1.465,1.465,0,1,1,2.166-1.97A88.6,88.6,0,0,0,39.921,77.674c18.962,10.948,38.92,14.2,49.131,8.673a7.008,7.008,0,1,1,13.1-3.454Zm-86.74,0a7.008,7.008,0,1,1-10.4-6.12C3.95,63.682,17.706,46.131,38.5,34.127A91.237,91.237,0,0,1,64.579,23.793a1.465,1.465,0,0,1,.614,2.858A88.6,88.6,0,0,0,39.962,36.662C20.377,47.969,7.436,64.269,7.891,75.918c.173-.014.341-.027.514-.027A7.011,7.011,0,0,1,15.412,82.9ZM44.822,6.838a7.008,7.008,0,0,1,14.006,0c0,.1-.009.2-.014.3,11.6,5.993,19.658,26.438,19.658,50.068a91.85,91.85,0,0,1-3.886,27.12,1.465,1.465,0,1,1-2.794-.874,88.95,88.95,0,0,0,3.754-26.247c0-22.251-7.4-41.386-17.505-47.156A7,7,0,0,1,44.822,6.838Zm5.934,45.418a5.069,5.069,0,1,0,6.025,3.886A5.069,5.069,0,0,0,50.755,52.256Z" transform="translate(-1.392 -0.083)" fill="#911fc2"/>
</svg>
