<svg xmlns="http://www.w3.org/2000/svg" width="135.845" height="108.957" viewBox="0 0 135.845 108.957">
  <g id="Grupo_1" data-name="Grupo 1" transform="translate(-124.812 -232.01)">
    <path id="Icon_map-courthouse" data-name="Icon map-courthouse" d="M49.116,48.359,23.067,33.67,32.12,17.793l26.054,14.68Zm51.99,13.551L57.091,37.117l-4.525,7.947L96.574,69.859Zm5.343,3.014-4.54,7.941,22.7,12.775,4.54-7.933Zm-6.113,7.941a1.56,1.56,0,0,1-2.125.314,1.54,1.54,0,0,1-.838-1.973l5.307-9.3a1.549,1.549,0,0,1,2.134-.314,1.57,1.57,0,0,1,.829,2Zm33.486,5.091a5.6,5.6,0,0,0-2.861-.7l-5.8,10.166a5.372,5.372,0,0,0,9.263.249l1.489-2.632a5.194,5.194,0,0,0-2.086-7.081ZM60.694,29.414a2.544,2.544,0,0,1-3.467.968l-22.8-12.855a2.524,2.524,0,0,1-.959-3.461,2.558,2.558,0,0,1,3.481-.945L59.743,25.958a2.519,2.519,0,0,1,.951,3.456Zm3.2-5.581a2.553,2.553,0,0,1-3.473.962L37.608,11.943A2.5,2.5,0,0,1,36.654,8.5a2.547,2.547,0,0,1,3.481-.965l22.8,12.84a2.522,2.522,0,0,1,.954,3.458Zm-19.268,33.8a2.567,2.567,0,0,1-3.478.945L18.326,45.727a2.53,2.53,0,0,1-.957-3.461,2.575,2.575,0,0,1,3.478-.945L43.653,54.175a2.541,2.541,0,0,1,.968,3.461Zm3.187-5.6a2.553,2.553,0,0,1-3.492.948l-22.8-12.84a2.54,2.54,0,1,1,2.524-4.409l22.8,12.84A2.541,2.541,0,0,1,47.808,52.035ZM9.547,74.9h40.2v4.622H9.547Zm48.979,9.639a3.26,3.26,0,0,0-3.212-2.725H3.992A3.255,3.255,0,0,0,.779,84.539H.72v7.568H58.585V84.539Z" transform="translate(124.092 231.81)" fill="#911fc2"/>
    <path id="Icon_map-courthouse-2" data-name="Icon map-courthouse" d="M3.184,60.018,1.858,41.168l.461-20.374L3.645,39.632Zm2.647,17.39L3.59,45.591l-.23,10.2L5.6,87.608ZM6.1,81.275l-.231,10.19,1.156,16.394.231-10.18Zm-.311,10.19c-.026.838-.074,1.016-.108.4-.039-.415-.058-1.536-.043-2.532L5.911,77.4c.026-.852.074-1.031.109-.4.039.435.058,1.564.042,2.567ZM7.5,98c-.045-.622-.095-.932-.146-.9l-.3,13.046a18.687,18.687,0,0,0,.232,3.563,13.229,13.229,0,0,0,.239-3.244l.076-3.378c.034-1.558.042-3.395.022-5.1S7.559,98.845,7.5,98ZM3.773,35.706c-.017.755-.045,1.31-.078,1.543s-.069.125-.1-.3l-1.161-16.5c-.03-.422-.052-1.129-.061-1.964s0-1.727.012-2.478c.036-1.564.115-2.106.177-1.213L3.725,31.271c.03.422.052,1.129.061,1.963S3.791,34.957,3.773,35.706Zm.163-7.162c-.035,1.569-.114,2.121-.177,1.234L2.6,13.286c-.03-.417-.052-1.12-.061-1.952s0-1.72.013-2.466.045-1.316.078-1.548.069-.121.1.31L3.888,24.107c.03.423.052,1.129.061,1.963s0,1.725-.012,2.474ZM2.955,71.919c-.036,1.556-.115,2.1-.177,1.213L1.616,56.64c-.03-.424-.052-1.131-.061-1.965s0-1.725.012-2.476c.036-1.552.115-2.09.177-1.213l1.161,16.5c.062.883.084,2.872.049,4.441Zm.162-7.186c-.017.757-.046,1.311-.079,1.539s-.069.112-.1-.323L1.779,49.472c-.062-.894-.083-2.886-.048-4.448s.115-2.1.176-1.209L3.068,60.291c.062.886.084,2.876.049,4.444ZM1.169,94.077H3.216v5.931H1.169Zm2.494,12.369a20.622,20.622,0,0,0-.164-3.5H.887a20.545,20.545,0,0,0-.164,3.5h0v9.712H3.666v-9.712Z" transform="translate(124.092 224.809)" fill="rgba(145,31,194,0)"/>
  </g>
</svg>
