<svg xmlns="http://www.w3.org/2000/svg" width="100.756" height="108.957" viewBox="0 0 100.756 108.957">
  <g id="Grupo_2" data-name="Grupo 2" transform="translate(-289.871 -126.461)">
    <path id="Icon_material-wifi-tethering" data-name="Icon material-wifi-tethering" d="M53.378,44.8A10.076,10.076,0,1,0,63.453,54.878,10.105,10.105,0,0,0,53.378,44.8ZM83.6,54.878a30.227,30.227,0,1,0-45.34,26.146L43.3,72.258a20.151,20.151,0,1,1,20.151,0l5.038,8.766A30.211,30.211,0,0,0,83.6,54.878ZM53.378,4.5A50.364,50.364,0,0,0,28.139,98.455l5.038-8.715a40.328,40.328,0,1,1,40.353,0l5.038,8.715A50.345,50.345,0,0,0,53.378,4.5Z" transform="translate(286.871 129.462)" fill="#911fc2"/>
    <path id="Icon_material-wifi-tethering-2" data-name="Icon material-wifi-tethering" d="M6.816,51.238c-.42,0-.763,5.258-.763,11.684s.343,11.684.763,11.684.763-5.258.763-11.684S7.236,51.238,6.816,51.238ZM9.105,62.922c0-19.338-1.026-35.053-2.289-35.053S4.526,43.584,4.526,62.922c0,12.97.462,24.245,1.145,30.321l.382-10.165c-.454-4.09-.763-11.509-.763-20.156,0-12.911.683-23.369,1.526-23.369S8.342,50.011,8.342,62.922c0,8.646-.309,16.066-.763,20.156l.382,10.165C8.644,87.167,9.105,75.892,9.105,62.922ZM6.816,4.5C4.709,4.5,3,30.673,3,62.922c0,21.616.767,40.428,1.9,50.535l.382-10.107c-.908-8.121-1.523-23.135-1.523-40.428,0-25.823,1.366-46.738,3.053-46.738S9.868,37.1,9.868,62.922c0,17.293-.614,32.307-1.526,40.428l.382,10.107c1.141-10.107,1.908-28.919,1.908-50.535C10.632,30.673,8.922,4.5,6.816,4.5Z" transform="translate(333.433 121.961)" fill="rgba(0,0,0,0)"/>
  </g>
</svg>
