<svg xmlns="http://www.w3.org/2000/svg" width="12.861" height="11.434" viewBox="0 0 12.861 11.434">
  <path id="edit-regular" d="M8.983,7.628,9.7,6.913A.179.179,0,0,1,10,7.04v3.247a1.072,1.072,0,0,1-1.072,1.072H1.072A1.072,1.072,0,0,1,0,10.287V2.427A1.072,1.072,0,0,1,1.072,1.356H7.179a.18.18,0,0,1,.127.306l-.715.715a.177.177,0,0,1-.127.051H1.072v7.86h7.86V7.753A.176.176,0,0,1,8.983,7.628Zm3.5-4.506L6.616,8.985,4.6,9.209A.922.922,0,0,1,3.579,8.19L3.8,6.172,9.666.308a1.3,1.3,0,0,1,1.847,0l.965.965a1.308,1.308,0,0,1,0,1.849Zm-2.206.69-1.3-1.3L4.827,6.665,4.664,8.123,6.122,7.96Zm1.447-1.78-.965-.965a.233.233,0,0,0-.33,0l-.69.69,1.3,1.3.69-.69A.238.238,0,0,0,11.72,2.032Z" transform="translate(0 0.075)" fill="#7a18c5"/>
</svg>
