<svg xmlns="http://www.w3.org/2000/svg" width="32.82" height="24.4" viewBox="0 0 32.82 24.4">
  <path id="envelope-regular" d="M29.743,64H3.077A3.064,3.064,0,0,0,0,67.05v18.3A3.064,3.064,0,0,0,3.077,88.4H29.743a3.064,3.064,0,0,0,3.077-3.05V67.05A3.064,3.064,0,0,0,29.743,64Zm0,3.05v2.593c-1.437,1.16-3.729,2.964-8.627,6.767-1.08.842-3.218,2.864-4.706,2.84-1.488.024-3.627-2-4.706-2.84-4.9-3.8-7.19-5.606-8.627-6.767V67.05ZM3.077,85.35V73.557c1.469,1.16,3.552,2.787,6.727,5.251,1.4,1.093,3.855,3.507,6.606,3.492,2.738.015,5.161-2.364,6.606-3.491,3.175-2.464,5.258-4.092,6.727-5.252V85.35Z" transform="translate(0 -64)" fill="#d4d4d4"/>
</svg>
