<svg id="linkedin" xmlns="http://www.w3.org/2000/svg" width="26.537" height="26.501" viewBox="0 0 26.537 26.501">
  <path id="Path_2" data-name="Path 2" d="M25.61,25.712h.007V15.991c0-4.755-1.024-8.417-6.582-8.417a5.77,5.77,0,0,0-5.2,2.857h-.077V8.018H8.489V25.711h5.488V16.95c0-2.307.437-4.537,3.294-4.537,2.815,0,2.857,2.632,2.857,4.685v8.614Z" transform="translate(0.92 0.789)" fill="#d4d4d4"/>
  <path id="Path_3" data-name="Path 3" d="M.4,7.977H5.891V25.67H.4Z" transform="translate(0.076 0.831)" fill="#d4d4d4"/>
  <path id="Path_4" data-name="Path 4" d="M3.182,0A3.2,3.2,0,1,0,6.365,3.182,3.2,3.2,0,0,0,3.182,0Z" transform="translate(0.035 0)" fill="#d4d4d4"/>
</svg>
