<svg xmlns="http://www.w3.org/2000/svg" width="32.484" height="28.424" viewBox="0 0 32.484 28.424">
  <path id="bars-solid" d="M31.324,83.2H1.16A1.16,1.16,0,0,0,0,84.363v2.9a1.16,1.16,0,0,0,1.16,1.16H31.324a1.16,1.16,0,0,0,1.16-1.16v-2.9A1.16,1.16,0,0,0,31.324,83.2Zm0-11.6H1.16A1.16,1.16,0,0,0,0,72.762v2.9a1.16,1.16,0,0,0,1.16,1.16H31.324a1.16,1.16,0,0,0,1.16-1.16v-2.9A1.16,1.16,0,0,0,31.324,71.6Zm0-11.6H1.16A1.16,1.16,0,0,0,0,61.16v2.9a1.16,1.16,0,0,0,1.16,1.16H31.324a1.16,1.16,0,0,0,1.16-1.16v-2.9A1.16,1.16,0,0,0,31.324,60Z" transform="translate(0 -60)" fill="#fff"/>
</svg>
