<svg xmlns="http://www.w3.org/2000/svg" width="14.847" height="14.847" viewBox="0 0 14.847 14.847">
  <path id="minus-square-regular" d="M3.579,40.352a.4.4,0,0,1-.4-.4V38.893a.4.4,0,0,1,.4-.4h7.689a.4.4,0,0,1,.4.4v1.061a.4.4,0,0,1-.4.4Zm11.268-6.761V45.256a1.591,1.591,0,0,1-1.591,1.591H1.591A1.591,1.591,0,0,1,0,45.256V33.591A1.591,1.591,0,0,1,1.591,32H13.256A1.591,1.591,0,0,1,14.847,33.591ZM13.256,45.058V33.79a.2.2,0,0,0-.2-.2H1.79a.2.2,0,0,0-.2.2V45.058a.2.2,0,0,0,.2.2H13.058A.2.2,0,0,0,13.256,45.058Z" transform="translate(0 -32)" fill="#7a18c5"/>
</svg>
